<svg width="166" height="126" viewBox="0 0 166 126" fill="none" xmlns="http://www.w3.org/2000/svg">
<rect x="3" y="3" width="160" height="120" rx="15" fill="#F99E9E" stroke="url(#paint0_linear_18_3)" stroke-width="5"/>
<path d="M3 23H163V108C163 116.284 156.284 123 148 123H18C9.71573 123 3 116.284 3 108V23Z" fill="#FBFBFD" stroke="url(#paint1_linear_18_3)" stroke-width="5"/>
<path d="M21.9048 61.297C21.9048 60.841 22.0728 60.469 22.4088 60.181C22.7448 59.869 23.1528 59.713 23.6328 59.713H39.5808C39.5808 60.721 39.3768 61.465 38.9688 61.945C38.5608 62.425 37.9248 62.665 37.0608 62.665H25.2888V70.729H35.3688C35.3688 71.737 35.1648 72.481 34.7568 72.961C34.3488 73.441 33.7248 73.681 32.8848 73.681H25.2888V81.961H37.8168C38.6568 81.961 39.2808 82.201 39.6888 82.681C40.0968 83.161 40.3008 83.905 40.3008 84.913H23.6328C23.1528 84.913 22.7448 84.769 22.4088 84.481C22.0728 84.169 21.9048 83.785 21.9048 83.329V61.297ZM46.2039 84.913C45.7239 84.913 45.3039 84.745 44.9439 84.409C44.6079 84.049 44.4399 83.629 44.4399 83.149V62.197C44.4399 60.325 45.5679 59.389 47.8239 59.389V81.925H58.8759C59.7159 81.925 60.3639 82.189 60.8199 82.717C61.2759 83.221 61.5039 83.953 61.5039 84.913H46.2039ZM66.0076 62.197C66.0076 61.309 66.2956 60.625 66.8716 60.145C67.4716 59.641 68.3116 59.389 69.3916 59.389V82.429C69.3916 83.317 69.0916 84.013 68.4916 84.517C67.9156 84.997 67.0876 85.237 66.0076 85.237V62.197ZM75.1665 62.305C75.1665 61.393 75.4425 60.685 75.9945 60.181C76.5705 59.653 77.3625 59.389 78.3705 59.389L92.3385 80.629L92.5905 80.413L91.5465 78.685V59.389C92.6505 59.389 93.4785 59.629 94.0305 60.109C94.6065 60.589 94.8945 61.285 94.8945 62.197V82.573C94.8945 83.341 94.6185 83.977 94.0665 84.481C93.5385 84.985 92.8545 85.237 92.0145 85.237L77.7225 63.529L77.4705 63.745L78.5145 65.473V82.429C78.5145 83.341 78.2265 84.037 77.6505 84.517C77.0985 84.997 76.2705 85.237 75.1665 85.237V62.305ZM109.892 85.237C107.852 85.237 106.04 84.865 104.456 84.121C102.872 83.353 101.636 82.297 100.748 80.953C99.8599 79.585 99.4159 78.037 99.4159 76.309V68.245C99.4159 66.517 99.8479 64.981 100.712 63.637C101.6 62.293 102.824 61.249 104.384 60.505C105.944 59.761 107.732 59.389 109.748 59.389C111.764 59.389 113.552 59.713 115.112 60.361C116.672 60.985 117.884 61.861 118.748 62.989C119.636 64.117 120.08 65.401 120.08 66.841C120.08 67.561 119.84 68.125 119.36 68.533C118.88 68.941 118.244 69.145 117.452 69.145C117.284 69.145 117.032 69.121 116.696 69.073C116.744 68.785 116.768 68.329 116.768 67.705C116.768 66.673 116.468 65.749 115.868 64.933C115.292 64.117 114.464 63.481 113.384 63.025C112.328 62.569 111.116 62.341 109.748 62.341C108.404 62.341 107.204 62.593 106.148 63.097C105.092 63.577 104.264 64.273 103.664 65.185C103.088 66.073 102.8 67.093 102.8 68.245V76.309C102.8 77.461 103.1 78.493 103.7 79.405C104.3 80.317 105.14 81.025 106.22 81.529C107.3 82.033 108.524 82.285 109.892 82.285C111.236 82.285 112.436 82.057 113.492 81.601C114.572 81.145 115.4 80.497 115.976 79.657C116.576 78.817 116.876 77.869 116.876 76.813V74.797H112.34C111.596 74.797 110.996 74.545 110.54 74.041C110.084 73.513 109.856 72.829 109.856 71.989H118.64C119.12 71.989 119.504 72.133 119.792 72.421C120.104 72.709 120.26 73.093 120.26 73.573V76.849C120.26 78.481 119.816 79.933 118.928 81.205C118.064 82.477 116.84 83.473 115.256 84.193C113.696 84.889 111.908 85.237 109.892 85.237ZM126.176 85.237C125.456 85.093 124.892 84.793 124.484 84.337C124.076 83.857 123.872 83.281 123.872 82.609C123.872 82.153 123.98 81.673 124.196 81.169L132.8 60.469C133.088 59.749 133.64 59.389 134.456 59.389C135.224 59.389 135.764 59.749 136.076 60.469L144.68 81.169C144.896 81.673 145.004 82.153 145.004 82.609C145.004 83.257 144.8 83.821 144.392 84.301C143.984 84.781 143.42 85.093 142.7 85.237L139.604 77.713H129.272L126.176 85.237ZM138.56 74.797L133.916 63.025L133.628 63.133L134.276 64.789L130.316 74.797H138.56Z" fill="#212121"/>
<circle cx="37" cy="13" r="5" fill="#FBFBFD"/>
<circle cx="129" cy="13" r="5" fill="#FBFBFD"/>
<defs>
<linearGradient id="paint0_linear_18_3" x1="34.8388" y1="-13.3087" x2="151.793" y2="139.806" gradientUnits="userSpaceOnUse">
<stop stop-color="#FFDEDE"/>
<stop offset="1" stop-color="#F99E9E"/>
</linearGradient>
<linearGradient id="paint1_linear_18_3" x1="23.3526" y1="13.2083" x2="159.379" y2="140.556" gradientUnits="userSpaceOnUse">
<stop stop-color="#FFDEDE"/>
<stop offset="1" stop-color="#F99E9E"/>
</linearGradient>
</defs>
</svg>
